<?xml version="1.0" encoding="utf-8"?>
<svg xmlns="http://www.w3.org/2000/svg" xml:space="preserve" id="Layer_1" x="0" y="0" style="enable-background:new 0 0 48 48" version="1.1" viewBox="0 0 48 48">
  <style>
    .st0{fill:#000}
  </style>
  <path d="M0 0h48v48H0z" style="fill:#333;fill-opacity:0"/>
  <path d="M26.6 10V7.8h-5.2V10h-8.8v2.8h22.8V10zM35.4 15.4H12.6v4.3h1.8V37c0 1.1.9 2 2 2h15.2c1.1 0 2-.9 2-2V19.7h1.8v-4.3zM19.7 34.2c0 .5-.4 1-1 1-.5 0-1-.4-1-1V22.6c0-.5.4-1 1-1 .5 0 1 .4 1 1v11.6zm5.6-.4c0 .7-.6 1.3-1.3 1.3-.7 0-1.3-.6-1.3-1.3V23c0-.7.6-1.3 1.3-1.3.7 0 1.3.6 1.3 1.3v10.8zm5 .4c0 .5-.4 1-1 1-.5 0-1-.4-1-1V22.6c0-.5.4-1 1-1 .5 0 1 .4 1 1v11.6z" class="st0"/>
</svg>