<?xml version="1.0" encoding="UTF-8" standalone="no"?>
<svg xmlns="http://www.w3.org/2000/svg" id="svg1" width="512" height="512" version="1.1">
  <path id="path7" d="m155.327 480.616 323.962-.033V45.207L32.68 44.87l.24 35.605 411.103-.882-.338 365.995-169.126-.577Z" style="fill:#000;fill-opacity:1;stroke:none;stroke-width:35;stroke-dasharray:none;stroke-opacity:1"/>
  <circle id="path8" cx="460.396" cy="461.547" r="39.134" style="fill:#000;fill-opacity:1;stroke:none;stroke-width:35;stroke-dasharray:none;stroke-opacity:1"/>
  <circle id="path8-8" cx="460.775" cy="65.834" r="39.134" style="fill:#000;fill-opacity:1;stroke:none;stroke-width:35;stroke-dasharray:none;stroke-opacity:1"/>
  <circle id="path8-8-0" cx="67.176" cy="62.815" r="39.134" style="fill:#000;fill-opacity:1;stroke:none;stroke-width:35;stroke-dasharray:none;stroke-opacity:1"/>
  <path id="path2" fill="#000" fill-rule="evenodd" stroke="none" d="M78.983 469.63c-2.155.594-4.661-.186-6.416-1.995-1.755-1.81-2.512-4.396-1.937-6.616.52-2.005 2.036-7.54 3.369-12.298 1.333-4.76 4.302-15.274 6.598-23.365 2.295-8.09 6.159-21.33 8.585-29.421a5326.7 5326.7 0 0 0 9.458-32.018c2.775-9.519 6.848-23.538 9.05-31.153a3424.585 3424.585 0 0 1 8.424-28.556c2.432-8.09 5.74-19.445 7.35-25.23 1.61-5.786 4.963-13.271 7.45-16.634 3.196-4.319 8.828-8.134 19.19-12.998 8.067-3.787 22.221-10.287 31.454-14.445 9.232-4.158 20.186-9.16 24.34-11.116a766.22 766.22 0 0 1 15.108-6.874c4.154-1.824 8.5-4.181 9.657-5.238 1.675-1.53 1.537-3.405-.681-9.226-2.27-5.96-2.436-8.498-.898-13.779 1.221-4.19 5.936-10.614 13.373-18.217 6.772-6.923 13.882-12.502 17.322-13.59 4.562-1.444 7.103-1.28 11.648.752 3.426 1.532 23.389 20.759 48.618 46.826 23.543 24.325 45.072 47.061 47.841 50.525 3.873 4.843 5.036 8.022 5.036 13.76 0 6.664-.988 8.548-9.232 17.594-5.078 5.572-11.81 12.267-14.959 14.876-4.16 3.448-7.614 4.745-12.635 4.745-3.801 0-8.653-1.259-10.783-2.797-2.18-1.574-4.506-2.141-5.322-1.298-.797.824-5.186 10.455-9.754 21.402a5146.966 5146.966 0 0 1-15.335 36.316c-3.866 9.027-10.026 22.886-13.689 30.798-4.617 9.975-8.217 15.361-11.743 17.572-2.796 1.753-10.879 5.156-17.961 7.562-7.083 2.406-20.431 6.749-29.664 9.65-9.232 2.902-25.661 8.033-36.509 11.403-10.847 3.37-31.242 9.76-45.323 14.201-14.08 4.44-32.777 10.286-41.547 12.99-8.771 2.704-17.539 5.355-19.483 5.892zm33.106-25.66c3.124-.525 14.558-3.756 25.407-7.18 10.85-3.424 33.511-10.53 50.36-15.791a27689.101 27689.101 0 0 1 50.776-15.803c14.114-4.37 21.467-7.596 24.568-10.778 2.433-2.497 8.003-13.108 12.378-23.578 4.374-10.471 10.397-24.88 13.384-32.018 2.987-7.14 8.327-19.6 11.866-27.691 3.54-8.091 6.71-17.047 7.046-19.903.555-4.717-2.161-8.042-29.692-36.345-16.667-17.133-31.78-31.396-33.584-31.694-1.804-.298-24.636 9.269-50.737 21.259-26.102 11.99-49.09 23.383-51.087 25.316-1.997 1.934-4.862 7.745-6.369 12.914a7969.157 7969.157 0 0 0-7.086 24.55 5161.998 5161.998 0 0 1-9.204 31.594c-2.67 9.043-9.076 30.85-14.234 48.46-5.158 17.609-10.028 34.72-10.822 38.026-.794 3.304-1.129 6.334-.743 6.731.385.397 3.176-1.24 6.202-3.637 3.026-2.397 17.965-17.532 33.199-33.633 15.233-16.1 31.64-33.573 36.46-38.83 8.522-9.292 8.717-9.73 7.063-15.905-1.163-4.344-1.143-8.487.066-13.114 1.094-4.191 4.275-9.1 8.364-12.909 3.648-3.398 9.265-6.662 12.561-7.3 4.51-.872 7.9-.158 13.92 2.932 4.845 2.486 9.223 6.36 11.188 9.9 1.776 3.2 3.3 9.202 3.385 13.339.09 4.285-1.167 10.058-2.921 13.416-1.693 3.242-6.11 7.651-9.814 9.798-5.669 3.285-8.24 3.73-16.226 2.804-9.49-1.099-9.49-1.099-49.778 40.478-22.158 22.867-40.577 42.47-40.932 43.56-.438 1.349 1.175 1.679 5.036 1.031zm90.33-98.225c3.355 0 6.06-1.502 8.524-4.733 2.602-3.409 3.338-6.138 2.634-9.765-.537-2.768-2.295-6.065-3.908-7.327-1.612-1.262-5.138-2.32-7.835-2.35-2.697-.03-6.285 1.234-7.974 2.81-1.808 1.687-3.07 5.242-3.07 8.653 0 3.481 1.339 7.169 3.358 9.25 1.846 1.904 5.568 3.462 8.271 3.462zm133.61-53.652c1.976 0 7.955-4.72 14.175-11.19 10.066-10.471 10.62-11.455 8.624-15.3-1.174-2.262-22.067-24.651-46.43-49.755-28.883-29.764-45.482-45.645-47.707-45.645-1.918 0-7.85 4.523-13.542 10.323-7.359 7.498-9.997 11.39-9.645 14.229.303 2.438 17.518 21.468 45.796 50.622 29.62 30.538 46.495 46.716 48.73 46.716z" style="stroke:#010101;stroke-width:17.0446;stroke-dasharray:none;stroke-opacity:1"/>
  <path id="path3" d="m243.547 189.376 16.458-15.442 96.745 96.717-16.459 16.256z" style="fill:green;fill-opacity:1;stroke:none;stroke-width:18.6862;stroke-dasharray:none;stroke-opacity:1"/>
  <circle id="path9" cx="201.178" cy="332.215" r="13.593" style="fill:#fff;fill-opacity:1;stroke:none;stroke-width:35;stroke-dasharray:none;stroke-opacity:1"/>
</svg>