<?xml version="1.0" encoding="UTF-8"?>
<!-- Generated by Pixelmator Pro 3.7 -->
<svg width="512" height="512" viewBox="0 0 512 512" xmlns="http://www.w3.org/2000/svg" xmlns:xlink="http://www.w3.org/1999/xlink">
    <path id="Shape" fill="#212A32" fill-rule="evenodd" stroke="none" d="M 73.574318 425.686768 C 72.433441 425.875031 69.474998 425.094574 67 423.952454 C 64.525002 422.810333 61.487499 420.925354 60.25 419.763611 C 58 417.651367 58 417.651367 58 348.144531 C 58 278.637695 58 278.637695 64.15226 268.068848 C 67.536011 262.255981 73.313545 252.549988 76.991226 246.5 C 80.668915 240.450012 89.670906 225.375 96.995644 213 C 104.320389 200.625 112.662483 186.674988 115.533646 182 C 118.4048 177.325012 128.697449 160.120361 138.406174 143.767456 C 148.114914 127.414551 163.517715 101.539551 172.634628 86.267456 C 181.751526 70.995361 190.896469 56.245453 192.956696 53.489868 C 195.254944 50.415955 198.736298 47.372833 201.964966 45.615601 C 205.547699 43.665619 209.185913 42.598907 213.363663 42.27356 C 218.336411 41.886292 220.809326 42.291656 226.404907 44.411316 C 230.202591 45.849945 237.402588 49.329651 242.404907 52.144043 C 247.407211 54.958435 255.774994 59.756927 261 62.807404 C 266.225006 65.857849 274.774994 70.941406 280 74.104187 C 285.225006 77.266937 292.061249 81.349854 295.191681 83.177338 C 298.322083 85.004791 304.593597 88.698059 309.128387 91.384552 C 313.663147 94.071075 319.525085 98.281769 322.154938 100.741699 C 325.42041 103.796173 327.611938 107.003418 329.066864 110.857117 C 330.739197 115.286774 331.103424 118.018188 330.760925 123.56131 C 330.43689 128.805359 329.575104 132.072418 327.412292 136.25589 C 325.810547 139.354187 318.023956 152.826599 310.108765 166.19458 C 302.193604 179.562561 293.868591 193.52121 291.608765 197.213776 C 289.348938 200.906342 284.985504 208.106354 281.912231 213.213776 C 278.838959 218.321198 270.711334 231.950012 263.8508 243.5 C 256.990295 255.049988 247.400177 271.25 242.539444 279.5 C 237.678696 287.75 231.360229 298.325012 228.498383 303 C 225.636551 307.674988 220.191147 316.829224 216.397522 323.342712 C 212.603882 329.856201 205.890396 341.105133 201.478653 348.340332 C 193.756912 361.003967 193.215347 361.63028 186.978653 365.109344 C 183.41539 367.097076 171.620941 373.526276 160.768753 379.396423 C 149.916565 385.266602 131.916565 395.056671 120.768745 401.1521 C 109.620934 407.247559 94.90844 415.184448 88.074318 418.789642 C 81.240189 422.394806 74.715187 425.498535 73.574318 425.686768 Z M 116 376.754456 C 118.096039 376.543518 128.525452 371.474579 142 364.117859 C 154.375 357.361481 165.393753 350.964722 166.486115 349.902863 C 167.980591 348.450134 168.219772 347.57196 167.452347 346.355347 C 166.891403 345.466064 160.147644 341.00293 152.466217 336.437256 C 144.784805 331.871613 135.350006 326.168945 131.5 323.764709 C 127.650002 321.360443 116.453964 314.692322 106.619926 308.946655 C 96.785881 303.200989 87.533401 297.970886 86.058846 297.324219 C 84.417702 296.604492 82.819748 296.493042 81.938927 297.036957 C 80.957619 297.642883 80.340988 300.480957 80 305.960907 C 79.724998 310.380402 79.653214 323.273193 79.840477 334.611572 C 80.180962 355.226837 80.180962 355.226837 83.340477 358.518677 C 85.078217 360.329193 92.349998 365.252136 99.5 369.458588 C 110.254417 375.785583 113.104576 377.045837 116 376.754456 Z M 184.979996 329 C 185.880753 329 187.322388 328.4375 188.183624 327.75 C 189.044861 327.0625 191.986755 322.899994 194.721161 318.5 C 197.455582 314.100006 212.197037 289.575012 227.47995 264 C 242.762863 238.424988 257.119476 214.503387 259.383514 210.840851 C 261.647583 207.178284 265.524994 200.687805 268 196.417542 C 270.475006 192.147247 273.957123 186.14389 275.738068 183.076691 C 277.523224 180.002289 278.981506 176.072205 278.988068 174.317993 C 278.999237 171.335541 278.294434 170.703522 267.75 164.240753 C 261.5625 160.448364 253.125 155.321045 249 152.84668 C 244.875 150.372314 235.754837 144.907379 228.732956 140.702332 C 221.71109 136.497284 212.486084 130.958221 208.232956 128.39328 C 203.979828 125.828369 197.371674 121.899323 193.548157 119.662079 C 189.72464 117.424835 185.418167 115.421448 183.978195 115.210114 C 181.979828 114.916809 180.644867 115.640442 178.338669 118.267059 C 176.676895 120.159729 172.969727 125.711395 170.10054 130.604126 C 167.231339 135.496857 162.066681 144.159821 158.62352 149.855194 C 155.180359 155.550537 149.634521 164.775543 146.299438 170.355194 C 142.964355 175.934845 136.29039 187.024994 131.468384 195 C 126.646393 202.975006 120.571129 213.100006 117.967812 217.5 C 115.364487 221.899994 109.518463 231.575012 104.976639 239 C 100.434822 246.424988 94.708519 255.988464 92.251534 260.252167 C 88.991837 265.908813 87.948189 268.65741 88.390656 270.420349 C 88.845047 272.230804 92.629936 274.990234 103.491547 281.429932 C 111.463524 286.156433 124.176689 293.686981 131.743027 298.16452 C 139.309357 302.642059 149.324997 308.65036 154 311.516296 C 158.675003 314.382263 167.189499 319.488525 172.921127 322.863556 C 178.65274 326.238586 184.079239 329 184.979996 329 Z M 285.661102 134.977844 C 287.97934 134.99408 289.512512 134.179626 291.411102 131.923279 C 292.908417 130.143829 294 127.609955 294 125.913757 C 294 123.644043 293.152191 122.405426 290.25 120.435181 C 288.1875 119.034973 283.720306 116.145264 280.322876 114.01358 C 276.925446 111.881897 270.400452 107.99884 265.822876 105.384521 C 261.2453 102.770203 255.024994 98.976471 252 96.954041 C 248.975006 94.93161 244.25 92.081146 241.5 90.61969 C 238.75 89.158264 233.350006 85.931335 229.5 83.448761 C 224.476532 80.209473 221.661926 79.01474 219.531921 79.217499 C 217.432587 79.417297 215.882141 80.515015 214.234802 82.967804 C 212.798111 85.106964 212.019608 87.555267 212.202881 89.357971 C 212.456848 91.855927 213.807068 93.077637 221.5 97.770203 C 226.449997 100.789642 237.024994 107.196594 245 112.007874 C 252.975006 116.819153 264.674988 123.950684 271 127.855682 C 278.806824 132.675537 283.515167 134.962799 285.661102 134.977844 Z"/>
    <path id="path1" fill="#212A32" fill-rule="evenodd" stroke="none" d="M 479.5 119.5 C 479.5 153.5 479.5 153.5 472.5 153.761627 C 468.649994 153.905518 461.225006 154.708954 456 155.547028 C 450.774994 156.385132 443.466675 157.966583 439.759277 159.061371 C 436.05188 160.156189 430.343719 162.619598 427.074493 164.535645 C 423.805267 166.451691 419.672913 169.245789 417.891449 170.744781 C 416.110016 172.243774 412.965179 176.08078 410.902954 179.271454 C 408.507751 182.977295 406.493622 187.858795 405.326721 192.786346 C 403.980774 198.469788 403.509888 204.334198 403.537537 215.067841 C 403.560455 223.970093 404.286011 234.276245 405.403107 241.567841 C 406.408508 248.130524 408.366913 258.674988 409.755096 265 C 411.14325 271.325012 412.907196 279.200012 413.674927 282.5 C 414.442657 285.799988 416.815094 297.049988 418.946991 307.5 C 421.078888 317.950012 423.76297 332.401184 424.911591 339.613708 C 426.481873 349.47406 427 357.319122 427 371.235504 C 427 387.630524 426.716309 390.871338 424.515106 399.621765 C 423.148407 405.05481 420.216461 413.182556 417.999634 417.683472 C 415.167511 423.433655 411.734741 428.242035 406.454742 433.854706 C 401.146912 439.496948 395.939392 443.700836 388.720215 448.171234 C 383.099091 451.652039 375.575012 455.78241 372 457.349823 C 368.424988 458.917206 361.261017 461.749329 356.080017 463.643402 C 350.899017 465.537445 342.574005 467.951355 337.580017 469.007568 C 332.585999 470.063812 324 471.644897 318.5 472.521088 C 311.866943 473.57782 299.745911 474.237183 282.5 474.479462 C 268.200012 474.680359 252 474.489349 246.5 474.054932 C 241 473.620544 230.875 472.51828 224 471.605438 C 217.125 470.692596 207.424561 469.276886 202.443451 468.459412 C 197.462357 467.641907 190.037354 466.282959 185.943451 465.439453 C 181.849548 464.595978 176.25 463.281586 173.5 462.518616 C 170.75 461.755646 165.800003 460.43631 162.5 459.586731 C 159.199997 458.737183 152 456.93927 146.5 455.59137 C 141 454.243469 130.649994 451.291107 123.5 449.030579 C 116.349998 446.77002 108.587502 444.226166 106.25 443.377533 C 103.345978 442.323242 102 441.251038 102 439.992004 C 102 438.763947 105.25164 436.022705 111.75 431.772461 C 117.112503 428.265137 124.951981 423.494568 129.171066 421.171265 C 136.842117 416.947052 136.842117 416.947052 147.671066 419.885193 C 153.626984 421.50116 166.824997 424.88266 177 427.399658 C 187.175003 429.916656 200.449997 432.864655 206.5 433.950775 C 212.550003 435.036896 221.550003 436.377319 226.5 436.929504 C 231.449997 437.481689 241.350006 438.46051 248.5 439.104675 C 256.607147 439.835083 270.156616 440.060425 284.5 439.703461 C 297.763824 439.373352 311.521454 438.469299 317 437.56781 C 322.225006 436.708008 331 434.605408 336.5 432.895386 C 342 431.185333 349.424988 428.45224 353 426.821869 C 356.575012 425.191498 361.75 422.78241 364.5 421.468353 C 367.25 420.154297 372.440887 416.632446 376.035309 413.642029 C 379.923035 410.407593 383.626404 406.239136 385.176788 403.352478 C 386.610199 400.683624 388.82962 395.208862 390.108826 391.18631 C 392.043091 385.103973 392.427551 381.771362 392.392365 371.391907 C 392.368134 364.243286 391.617584 354.764648 390.63559 349.205566 C 389.692627 343.867493 388.22879 335.674988 387.382629 331 C 386.536469 326.325012 384.929169 318.225006 383.810822 313 C 382.692505 307.774994 380.661194 299 379.296814 293.5 C 377.932434 288 375.796661 278.774994 374.55069 273 C 373.304718 267.225006 371.555939 258 370.66452 252.5 C 369.773102 247 368.583893 238.419525 368.021881 233.432281 C 367.459839 228.445038 367.007843 219.445038 367.017456 213.432281 C 367.027069 207.419525 367.668945 198.633209 368.443848 193.907166 C 369.21875 189.181091 370.563477 182.881104 371.432129 179.907166 C 372.300781 176.933228 374.471405 171.682648 376.255737 168.239197 C 378.0401 164.795746 381.511963 159.235352 383.971008 155.882751 C 386.430054 152.530182 392.055054 146.895081 396.471008 143.360352 C 400.886963 139.825592 408.100006 135.196167 412.5 133.072693 C 416.899994 130.949249 424.549988 127.878998 429.5 126.249969 C 434.450012 124.620911 444.125 122.492981 451 121.521179 C 457.875 120.549408 467.100006 119.697083 471.5 119.627167 L 479.5 119.5 Z"/>
    <path id="path2" fill="#B6BCC4" fill-rule="evenodd" stroke="none" d="M 116 375.742615 C 113.270905 375.979401 110.6278 374.942505 104 371.035126 C 99.324997 368.278992 92.867485 364.331085 89.649971 362.261993 C 86.432457 360.192871 83.16996 357.284851 82.399971 355.799683 C 81.305717 353.689026 81 347.452454 81 327.240784 C 81 306.114777 81.26738 301.027008 82.460983 299.441132 C 83.890869 297.541321 84.034538 297.562286 89.210983 300.426575 C 92.119942 302.036163 97.425003 305.010712 101 307.036682 C 104.574997 309.062622 110.100868 312.245667 113.279701 314.110107 C 116.458542 315.974548 123.533379 320.200012 129.001572 323.5 C 134.469757 326.799988 142.838348 331.745026 147.59845 334.488953 C 152.358566 337.232849 158.333725 340.837097 160.876587 342.498352 C 163.445404 344.176575 165.630447 346.4263 165.793533 347.560852 C 166.040268 349.277313 162.373489 351.662323 142.793533 362.520905 C 128.02803 370.709534 118.218613 375.55014 116 375.742615 Z"/>
    <path id="path3" fill="#00ff00" fill-rule="evenodd" stroke="none" d="M 185.255783 329 C 184.243942 329 179.609955 326.806396 174.958038 324.125366 C 170.306122 321.444336 152.324997 310.802734 135 300.477417 C 117.675003 290.152069 100.349998 279.633148 96.5 277.102051 C 90.249817 272.99295 89.471245 272.125092 89.231583 269 C 89.029724 266.367798 90.047935 263.640442 93.338226 258 C 95.744507 253.875 114.914024 221.924988 135.937164 187 C 156.960297 152.075012 175.408127 121.924988 176.932327 120 C 179.126877 117.228363 180.520828 116.438263 183.630585 116.203308 C 187.107788 115.940613 189.902344 117.306458 208.028793 128.128174 C 219.287949 134.850037 238.175003 146.155121 250 153.25058 C 261.825012 160.346039 273.075012 167.400116 275 168.926331 C 277.098694 170.590271 278.626709 172.762299 278.816498 174.351379 C 279.006622 175.943481 277.794708 179.496368 275.780823 183.250732 C 273.937134 186.687836 254.255646 219.779419 232.044174 256.787598 C 209.832703 293.795776 190.632736 325.183258 189.377579 326.537598 C 188.122437 327.891907 186.267624 329 185.255783 329 Z"/>
</svg>
