<?xml version="1.0" encoding="UTF-8" standalone="no"?>
<svg xmlns="http://www.w3.org/2000/svg" id="svg1" width="512" height="512" version="1.1">
  <path id="path2" fill="#000" fill-rule="evenodd" stroke="none" d="M193.812 478.594c-90.053.005-55.415-.21-62.995-.883-3.109-.277-27.11-21.644-46.82-41.478-19.71-19.834-38.405-39.3-41.545-43.255-3.14-3.957-6.62-10.716-7.734-15.02-1.731-6.696-1.64-9.153.633-17.007 2.63-9.085 3.646-10.163 97.355-103.187 67.82-67.324 96.742-95.006 101.9-97.53 4.693-2.298 10.024-3.498 15.308-3.447 5.932.057 10.337 1.334 16.417 4.757 5.373 3.027 23.906 20.087 52.456 48.29 24.281 23.987 46.739 47.413 49.906 52.058 4.533 6.648 5.893 10.36 6.393 17.444.536 7.598-.072 10.288-3.907 17.275-3.191 5.814-24.3 28.163-70.958 75.126-36.529 36.767-66.373 67.623-66.926 68.174-19.83 19.71-39.71 38.183-39.483 38.683zm84.581-137.331c-68.043-67.49-88.703-86.892-89.81-86.657-1.106.234-27.946 26.117-59.643 57.517-31.698 31.4-57.439 57.94-57.202 58.977.236 1.037 15.757 17.272 34.492 36.078 34.062 34.193 34.062 34.193 53.6 34.193 19.536 0 19.536 0 55.274-35.285 19.656-19.407 41.937-41.932 49.514-50.054zm60.94-60.024c-66.9-66.62-87.289-86.356-88.469-86.837-1.29-.527-8.787 5.684-18.813 15.585l-16.668 16.46 44.408 44.028c24.425 24.215 44.787 44.027 45.249 44.027.461 0 8.366-7.484 17.566-16.632z" style="stroke-width:1.5931"/>
  <path id="path3" d="m214.604 225.766 35.345-32.835 89.308 87.873-34.083 33.773z" style="fill:maroon;fill-opacity:1;stroke:#010101;stroke-width:7.48758"/>
  <path id="path7" d="m238.705 480.616 240.584-.033V45.207L32.68 44.87l.24 35.605 411.103-.882-.338 365.995-169.126-.577Z" style="fill:#000;fill-opacity:1;stroke:none;stroke-width:35;stroke-dasharray:none;stroke-opacity:1"/>
  <circle id="path8" cx="460.396" cy="461.547" r="39.134" style="fill:#000;fill-opacity:1;stroke:none;stroke-width:35;stroke-dasharray:none;stroke-opacity:1"/>
  <circle id="path8-8" cx="460.775" cy="65.834" r="39.134" style="fill:#000;fill-opacity:1;stroke:none;stroke-width:35;stroke-dasharray:none;stroke-opacity:1"/>
  <circle id="path8-8-0" cx="67.176" cy="62.815" r="39.134" style="fill:#000;fill-opacity:1;stroke:none;stroke-width:35;stroke-dasharray:none;stroke-opacity:1"/>
</svg>