<?xml version="1.0" encoding="UTF-8" standalone="no"?>
<!-- Generated by Pixelmator Pro 3.7 -->

<svg
   width="512"
   height="512"
   viewBox="0 0 512 512"
   version="1.1"
   id="svg1"
   sodipodi:docname="icon-p2p-draw.svg"
   inkscape:version="1.4.2 (ebf0e940, 2025-05-08)"
   xmlns:inkscape="http://www.inkscape.org/namespaces/inkscape"
   xmlns:sodipodi="http://sodipodi.sourceforge.net/DTD/sodipodi-0.dtd"
   xmlns="http://www.w3.org/2000/svg"
   xmlns:svg="http://www.w3.org/2000/svg">
  <defs
     id="defs1" />
  <sodipodi:namedview
     id="namedview1"
     pagecolor="#ffffff"
     bordercolor="#000000"
     borderopacity="0.25"
     inkscape:showpageshadow="2"
     inkscape:pageopacity="0.0"
     inkscape:pagecheckerboard="0"
     inkscape:deskcolor="#d1d1d1"
     inkscape:zoom="4.6264917"
     inkscape:cx="372.31235"
     inkscape:cy="117.90792"
     inkscape:window-width="1184"
     inkscape:window-height="698"
     inkscape:window-x="218"
     inkscape:window-y="34"
     inkscape:window-maximized="0"
     inkscape:current-layer="svg1" />
  <path
     id="Shape"
     fill="#000000"
     fill-rule="evenodd"
     stroke="none"
     d="m 159.05968,482 c -4.24949,0 -8.02635,-0.29999 -8.39302,-0.66666 C 150.3,480.96667 150,476.49881 150,471.40476 c 0,-6.586 -0.4027,-9.66462 -1.39386,-10.65577 -0.76662,-0.76663 -4.92912,-2.16571 -9.25,-3.1091 -4.32088,-0.94342 -11.15276,-2.84784 -15.18196,-4.23205 -4.0292,-1.38425 -10.3292,-4.11719 -14,-6.07321 -3.6708,-1.956 -9.94945,-6.03895 -13.952561,-9.07315 -4.003109,-3.03425 -9.997334,-8.48404 -13.320496,-12.11069 -3.323166,-3.62665 -8.041473,-9.60138 -10.485134,-13.27716 -2.443661,-3.67579 -5.923992,-9.98859 -7.73407,-14.02845 -1.810078,-4.03985 -4.031382,-9.82019 -4.936228,-12.84518 -0.904846,-3.02499 -2.400741,-8.64999 -3.324211,-12.5 -0.923469,-3.85001 -2.183586,-7.51941 -2.800258,-8.15424 -0.616673,-0.63485 -5.300696,-1.47146 -10.408941,-1.85916 -6.010916,-0.4562 -9.803626,-1.22079 -10.75,-2.16717 C 31.515041,360.37219 31,357.81213 31,354.05102 c 0,-3.78607 0.49231,-6.21472 1.415018,-6.98049 0.77826,-0.64591 5.61576,-1.60019 10.75,-2.1207 7.228127,-0.73273 9.695814,-1.38095 10.933746,-2.87207 0.879322,-1.05921 2.135825,-4.09747 2.792229,-6.75177 0.656405,-2.6543 1.663979,-6.176 2.239054,-7.82599 0.575073,-1.64999 1.387457,-4.36841 1.805296,-6.04089 0.417839,-1.67249 2.674581,-6.84748 5.014978,-11.5 2.340401,-4.6525 6.196587,-11.15912 8.569298,-14.45911 2.372715,-3.29999 7.838955,-9.45227 12.147205,-13.67172 4.308247,-4.21945 10.553498,-9.46024 13.878346,-11.64621 3.32484,-2.18598 9.17484,-5.56571 13,-7.5105 3.82515,-1.94479 9.87983,-4.43219 13.45483,-5.52753 3.575,-1.09536 9.64183,-2.7088 13.48184,-3.58535 3.84001,-0.87659 7.53673,-2.14869 8.21491,-2.82688 0.79694,-0.79694 1.33392,-5.30048 1.51817,-12.73242 C 150.5,226.5 150.5,226.5 159,226.5 c 8.5,0 8.5,0 8.78508,11.49939 0.18425,7.43194 0.72124,11.93548 1.51816,12.73242 0.67819,0.67819 4.37491,1.9317 8.21492,2.78559 3.84001,0.85391 9.23184,2.23821 11.98184,3.07629 2.75,0.83807 6.4631,2.1709 8.25134,2.96182 1.78824,0.79093 5.42742,2.50131 8.08705,3.80087 2.65964,1.2995 8.17154,4.63538 12.24866,7.41309 4.07712,2.77765 10.83135,8.57837 15.00939,12.89044 4.17803,4.31204 9.69898,10.91126 12.26879,14.66492 2.56981,3.75363 5.85566,9.60364 7.30188,13 1.44623,3.39633 3.47298,8.42517 4.50388,11.17517 1.03088,2.75 2.5349,8.13324 3.34225,11.9628 0.80826,3.83386 2.319,7.81387 3.36185,8.85675 1.49179,1.49179 3.98885,2.03055 11.75943,2.5372 C 285.5,346.5 285.5,346.5 285.79384,353.75146 c 0.27357,6.75135 0.13563,7.31739 -2,8.20707 -1.26161,0.52557 -6.02535,1.09161 -10.58608,1.25787 -5.96737,0.21753 -8.5471,0.71463 -9.20124,1.77307 -0.49996,0.80893 -1.63656,4.40473 -2.52576,7.99066 -0.88922,3.58594 -2.34378,9.21988 -3.23238,12.51987 -0.88858,3.29999 -3.16327,9.375 -5.05485,13.5 -1.8916,4.125 -5.90319,11.17749 -8.91466,15.67221 -3.01146,4.49472 -8.96347,11.4697 -13.2267,15.5 -4.26321,4.03027 -9.9565,8.89475 -12.65173,10.80991 -2.69524,1.91519 -8.2367,5.1625 -12.31435,7.21624 -4.07765,2.05378 -10.15265,4.61609 -13.5,5.69404 -3.34735,1.07797 -9.23608,2.66888 -13.08609,3.53533 -3.85001,0.86646 -8.0125,2.01505 -9.25,2.5524 -2.09268,0.90869 -2.25,1.60205 -2.25,9.91663 0,4.91681 -0.27315,9.65146 -0.607,10.52145 C 166.91199,481.67172 165.1826,482 159.05968,482 Z m -13.34487,-51.09018 c 1.2348,0.0503 2.67287,-0.76569 3.25,-1.84408 C 149.59609,427.8862 150,417.74692 150,403.07993 c 0,-24.05155 0,-24.05155 -4.00317,-26.70072 -2.20175,-1.45706 -5.56832,-4.82776 -7.48127,-7.49045 -1.91296,-2.66269 -4.51712,-5.10202 -5.78702,-5.42074 -1.26991,-0.31873 -12.2882,-0.44193 -24.48509,-0.27378 -18.898426,0.26056 -22.416912,0.54679 -23.804924,1.93659 -1.505012,1.50693 -1.49538,2.19067 0.126789,9 0.96555,4.05304 3.116455,10.28866 4.779797,13.8569 1.663338,3.56824 4.821522,9.10669 7.018185,12.30765 2.196662,3.20096 6.675013,8.30212 9.951893,11.33594 3.27687,3.03381 7.80899,6.69989 10.07138,8.14685 2.26239,1.44696 5.598,3.40155 7.41248,4.34353 1.81448,0.94199 5.41447,2.42691 8,3.29981 2.58552,0.87289 6.27595,1.99457 8.20095,2.49258 1.925,0.49805 4.49667,0.94611 5.71481,0.99573 z M 172.15121,431 c 0.96317,0 4.31043,-0.66659 7.43836,-1.48132 3.12794,-0.81473 9.3374,-3.28336 13.7988,-5.48584 4.46139,-2.20252 10.89488,-6.24906 14.29661,-8.99231 3.40175,-2.74329 8.81371,-8.48715 12.0266,-12.76416 3.21287,-4.27701 7.13685,-10.47638 8.71997,-13.77637 1.58311,-3.29999 3.47832,-8.25 4.21155,-11 0.73324,-2.75 1.3385,-6.69864 1.34503,-8.77475 0.01,-3.13718 -0.42139,-3.93948 -2.55322,-4.75 C 230.02409,363.43887 219.04895,363 207.04568,363 c -19.37916,0 -22.04145,0.19605 -23.76408,1.75 -1.06699,0.96249 -3.17824,3.4552 -4.6917,5.53937 -1.51344,2.08414 -4.5153,4.95642 -6.6708,6.38287 C 168,379.26578 168,379.26578 168,403.93289 c 0,17.8522 0.33153,24.99863 1.2,25.8671 0.66,0.66 1.98805,1.20001 2.95121,1.20001 z M 112.5573,345.69806 C 134.61459,345.5 134.61459,345.5 142.2893,338.5 c 7.6747,-7 7.6747,-7 7.67905,-30 0.002,-12.64999 -0.267,-24.01251 -0.59864,-25.25 -0.46473,-1.73419 -1.32132,-2.24439 -3.73634,-2.22555 -1.72335,0.0134 -5.15837,0.47924 -7.63337,1.03512 -2.475,0.55585 -6.075,1.69434 -8,2.52997 -1.925,0.83563 -4.85,2.24176 -6.5,3.12475 -1.65,0.883 -5.34763,3.14237 -8.21696,5.02088 -2.86932,1.87848 -8.54576,6.95398 -12.61429,11.27887 -5.275706,5.60809 -8.627734,10.34717 -11.687259,16.52331 -2.359451,4.76294 -4.885509,11.20304 -5.61346,14.31128 -0.727952,3.10828 -1.087956,6.40824 -0.800007,7.33332 0.287948,0.92504 1.74044,2.13916 3.22776,2.69805 1.596138,0.59974 11.742393,0.93497 24.761516,0.81806 z m 93.72482,0.2872 c 16.25046,0.0115 21.5661,-0.31284 24.37746,-1.48749 3.42276,-1.43014 3.56594,-1.6821 2.98326,-5.25 -0.33664,-2.06128 -1.0437,-5.09778 -1.57125,-6.74777 -0.52752,-1.64999 -1.55023,-4.57501 -2.27266,-6.5 -0.72242,-1.92499 -2.76152,-6.01019 -4.53131,-9.07819 -1.76979,-3.06799 -5.98401,-8.59701 -9.36491,-12.28668 -3.38091,-3.68963 -8.9046,-8.6492 -12.2749,-11.02118 -3.3703,-2.37201 -7.47782,-5.01455 -9.12781,-5.87231 -1.64999,-0.85776 -5.26837,-2.47254 -8.04082,-3.58841 -2.77244,-1.11588 -7.38196,-2.33939 -10.24336,-2.719 -3.59506,-0.47689 -5.66808,-0.3038 -6.70918,0.56028 -1.26604,1.05072 -1.50655,5.10348 -1.50609,25.37793 5.6e-4,24.12756 5.6e-4,24.12756 6.58603,30.12756 3.62201,3.29999 7.55925,6.55585 8.74943,7.23526 1.52387,0.86984 8.31145,1.23962 22.94611,1.25 z" />
  <path
     id="path1"
     fill="#000000"
     fill-rule="evenodd"
     stroke="none"
     d="M 462.5 409.355286 C 460.299988 409.660095 456.381561 409.329254 453.792328 408.620087 C 451.203125 407.910919 447.378113 406.141388 445.292328 404.687805 C 443.206543 403.234192 440.149994 400.019714 438.5 397.544434 C 435.5 393.043976 435.5 393.043976 374.25 393.021973 C 314.34848 393.000488 312.955963 392.955963 311 391 C 309.484863 389.484863 309 387.666656 309 383.5 C 309 379.333313 309.484863 377.515137 311 376 C 312.956604 374.043396 314.333344 374 374.437866 374 C 435.875732 374 435.875732 374 438.934021 369.75 C 440.616119 367.412506 444.009186 364.149994 446.474182 362.5 C 450.956024 359.5 450.956024 359.5 450.978027 217.295807 C 451 75.091614 451 75.091614 446.437744 71.608063 C 443.928497 69.692108 440.307892 66.071503 438.391937 63.562256 C 434.908386 59 434.908386 59 294.04071 59 C 153.173019 59 153.173019 59 150.169998 63.083496 C 148.518326 65.329407 145.329391 68.518341 143.083481 70.169983 C 139 73.173035 139 73.173035 139 143.086517 C 139 211.666656 138.961853 213.038147 137 215 C 135.444443 216.555542 133.666672 217 129 217 C 124.333336 217 122.555557 216.555542 121 215 C 119.038139 213.038147 119 211.666656 119 143.086517 C 119 73.173035 119 73.173035 114.772369 70.063995 C 112.447166 68.354004 109.330612 65.147156 107.846695 62.937653 C 106.36277 60.728149 104.669952 56.688293 104.084885 53.960175 C 103.333191 50.45517 103.333191 47.54483 104.084885 44.039825 C 104.669952 41.311707 106.407997 37.204498 107.947197 34.912689 C 109.486404 32.62088 112.620872 29.486389 114.912689 27.947205 C 117.204498 26.40799 121.311707 24.669952 124.03981 24.084869 C 127.544838 23.333191 130.45517 23.333191 133.96019 24.084869 C 136.688293 24.669952 140.728149 26.362762 142.937668 27.84668 C 145.147171 29.330627 148.354019 32.447174 150.06398 34.772369 C 153.173019 39 153.173019 39 294.508575 39 C 435.844147 39 435.844147 39 439.172089 35.129028 C 441.002441 33 444.198975 30.109833 446.275513 28.706421 C 448.35202 27.30304 452.28952 25.674713 455.025513 25.087952 C 458.544159 24.333344 461.45166 24.332428 464.960175 25.084869 C 467.688293 25.669952 471.795502 27.40799 474.087311 28.947205 C 476.37912 30.486389 479.513611 33.62088 481.052795 35.912689 C 482.59201 38.204498 484.330048 42.311707 484.915131 45.039825 C 485.666809 48.54483 485.666809 51.45517 484.915131 54.960175 C 484.330048 57.688293 482.637238 61.728149 481.15332 63.937653 C 479.669373 66.147156 476.552826 69.354004 474.227631 71.063995 C 470 74.173035 470 74.173035 470 217 C 470 359.826965 470 359.826965 474.227631 362.936035 C 476.552826 364.645996 479.669373 367.852844 481.15332 370.062317 C 482.637238 372.271851 484.333313 376.326904 484.922363 379.073547 C 485.664612 382.534576 485.679108 385.469727 484.969574 388.635834 C 484.406464 391.148438 483.296112 394.46051 482.502075 395.995972 C 481.708038 397.531464 479.587799 400.258362 477.790436 402.055725 C 475.993042 403.853119 472.717407 406.10611 470.51123 407.062378 C 468.305054 408.018677 464.700012 409.050476 462.5 409.355286 Z"
     style="stroke:#010101;stroke-opacity:1;stroke-width:5;stroke-dasharray:none" />
  <path
     id="path2"
     fill="#000000"
     fill-rule="evenodd"
     stroke="none"
     d="m 250.39375,263.58136 c -1.28341,0.34323 -2.77664,-0.10712 -3.82232,-1.15277 -1.04522,-1.04523 -1.49613,-2.53949 -1.15343,-3.82233 0.30946,-1.15845 1.21249,-4.35626 2.00673,-7.10626 0.79425,-2.75 2.56294,-8.82501 3.93045,-13.5 1.36751,-4.67499 3.669,-12.32501 5.11445,-17 1.44544,-4.67499 3.98087,-13 5.6343,-18.5 1.65341,-5.5 4.07933,-13.60001 5.39091,-18 1.31159,-4.39999 3.5701,-11.82501 5.01892,-16.5 1.44882,-4.67499 3.41907,-11.2352 4.37833,-14.57822 0.95923,-3.34301 2.95657,-7.66787 4.43848,-9.61078 1.90362,-2.49575 5.25882,-4.70013 11.43191,-7.5108 4.80563,-2.18805 13.23752,-5.94379 18.73752,-8.3461 5.5,-2.40231 12.02499,-5.29263 14.5,-6.42291 2.47501,-1.13028 6.52499,-2.91754 9,-3.97174 2.47501,-1.05417 5.06369,-2.41608 5.75269,-3.02646 0.99813,-0.88428 0.91577,-1.96744 -0.40546,-5.3309 -1.35263,-3.44352 -1.45114,-4.91025 -0.5347,-7.96161 0.72727,-2.4216 3.53616,-6.13303 7.96637,-10.52606 4.03409,-4.00022 8.26987,-7.223484 10.31906,-7.85242 2.71784,-0.834137 4.23142,-0.739258 6.93906,0.434875 2.0411,0.885135 13.93313,11.994295 28.96298,27.056245 14.02499,14.05499 26.85001,27.19208 28.5,29.19351 2.30685,2.79822 3,4.63525 3,7.95081 0,3.85022 -0.58881,4.9385 -5.5,10.16574 -3.02499,3.21963 -7.03497,7.08755 -8.91104,8.59536 -2.47876,1.99222 -4.53604,2.74146 -7.5275,2.74146 -2.26404,0 -5.15451,-0.72708 -6.42322,-1.61572 -1.29849,-0.90949 -2.68423,-1.23734 -3.17031,-0.75 -0.47495,0.47613 -3.08991,6.04071 -5.81104,12.36572 -2.7211,6.32501 -6.83203,15.7677 -9.13535,20.98379 -2.30328,5.21607 -5.97289,13.22385 -8.15463,17.79508 -2.75085,5.76358 -4.89529,8.87591 -6.99569,10.15326 -1.6659,1.01309 -6.48093,2.97937 -10.70005,4.36954 C 348.95203,233.6918 341,236.2009 335.5,237.87744 c -5.5,1.67651 -15.28708,4.64142 -21.74905,6.58868 -6.46198,1.94727 -18.61197,5.63974 -27,8.20551 -8.38804,2.5658 -19.52594,5.94339 -24.75095,7.50574 -5.22501,1.56238 -10.44782,3.09415 -11.60625,3.40399 z m 19.72205,-14.82675 c 1.86131,-0.30286 8.67232,-2.16944 15.1356,-4.14792 6.46326,-1.97852 19.96326,-6.08453 30,-9.12451 10.03672,-3.03995 23.64859,-7.14887 30.2486,-9.13095 8.40857,-2.52518 12.78885,-4.38898 14.6358,-6.22748 1.44971,-1.44306 4.76798,-7.57376 7.37397,-13.62375 2.60595,-6.04999 6.194,-14.375 7.97338,-18.5 1.77939,-4.125 4.9603,-11.32501 7.06867,-16 2.10837,-4.67499 3.99728,-9.85001 4.19757,-11.5 0.33081,-2.72553 -1.28757,-4.64688 -17.68838,-21 -9.92887,-9.89999 -18.93186,-18.14084 -20.0066,-18.31299 -1.07477,-0.17212 -14.67615,5.35538 -30.22531,12.28336 -15.54916,6.92798 -29.24429,13.51053 -30.43365,14.62787 -1.18937,1.11734 -2.89658,4.47515 -3.7938,7.46179 -0.89721,2.98666 -2.79687,9.36996 -4.22146,14.18512 -1.42456,4.81518 -3.89188,13.02984 -5.4829,18.25485 -1.59103,5.22501 -5.40681,17.82501 -8.4795,28 -3.07271,10.17499 -5.97385,20.06238 -6.447,21.97192 -0.47316,1.90955 -0.67239,3.65979 -0.44274,3.88947 0.22962,0.22961 1.89227,-0.716 3.69473,-2.10138 1.80247,-1.38541 10.70222,-10.13037 19.77722,-19.43329 9.07501,-9.30289 18.84918,-19.39905 21.7204,-22.43585 5.07641,-5.36923 5.19244,-5.62268 4.20727,-9.19068 -0.69302,-2.50985 -0.68063,-4.90386 0.0391,-7.57693 0.65213,-2.42178 2.54699,-5.25815 4.98306,-7.45901 2.17325,-1.96341 5.51895,-3.84919 7.48273,-4.21756 2.68689,-0.50409 4.70645,-0.0917 8.29287,1.69348 2.88578,1.4364 5.49369,3.67492 6.66449,5.72058 1.05793,1.84842 1.96549,5.31656 2.01679,7.70703 0.0531,2.47607 -0.69574,5.81183 -1.74036,7.7521 -1.00848,1.8732 -3.63943,4.42075 -5.84652,5.66123 -3.37693,1.89792 -4.90894,2.15472 -9.66639,1.62033 C 315.5,198.96637 315.5,198.96637 291.5,222.98968 c -13.20001,13.21283 -24.1729,24.5391 -24.3842,25.16944 -0.26116,0.77899 0.69978,0.96972 3,0.59549 z M 323.92743,192 c 1.99838,0 3.60995,-0.86771 5.07815,-2.73422 1.54956,-1.96997 1.98816,-3.54706 1.56913,-5.64228 -0.31989,-1.59945 -1.36756,-3.50473 -2.32816,-4.23397 -0.9606,-0.72925 -3.06113,-1.34024 -4.66782,-1.35773 -1.60668,-0.0175 -3.7442,0.71295 -4.75,1.6232 -1.07733,0.97497 -1.82873,3.02939 -1.82873,5 0,2.01166 0.79721,4.14221 2,5.345 1.10001,1.10001 3.31735,2 4.92743,2 z m 79.59451,-31 c 1.17713,0 4.73886,-2.72726 8.44422,-6.46585 5.99658,-6.05036 6.32669,-6.61844 5.13729,-8.84082 -0.69906,-1.30624 -13.14544,-14.24304 -27.65859,-28.74845 -17.20655,-17.19735 -27.09495,-26.37344 -28.42066,-26.37344 -1.1424,0 -4.67676,2.61295 -8.06741,5.96427 -4.3837,4.33285 -5.9553,6.58175 -5.74555,8.22158 0.18021,1.40876 10.43601,12.40442 27.2818,29.25 C 392.13837,151.65237 402.19113,161 403.52194,161 Z"
     style="stroke:#010101;stroke-width:10;stroke-dasharray:none;stroke-opacity:1" />
  <path
     style="fill:#008000;fill-opacity:1;stroke:none;stroke-width:10.9631;stroke-dasharray:none;stroke-opacity:1"
     d="m 348.42816,101.6495 9.80477,-8.922651 57.63294,55.883971 -9.80478,9.39227 z"
     id="path3" />
</svg>
