<?xml version="1.0" encoding="UTF-8" standalone="no"?>
<svg xmlns="http://www.w3.org/2000/svg" id="svg1" width="512" height="512" version="1.1">
  <path id="Shape" fill="#000" fill-rule="evenodd" stroke="none" d="M73.574 425.687c-1.14.188-4.099-.592-6.574-1.735-2.475-1.142-5.513-3.027-6.75-4.188C58 417.65 58 417.65 58 348.144c0-69.506 0-69.506 6.152-80.075a1599.57 1599.57 0 0 1 12.84-21.569c3.677-6.05 12.679-21.125 20.004-33.5 7.324-12.375 15.666-26.325 18.538-31 2.87-4.675 13.163-21.88 22.872-38.233a33686.921 33686.921 0 0 1 34.229-57.5c9.117-15.272 18.261-30.022 20.322-32.777 2.298-3.074 5.78-6.117 9.008-7.874 3.583-1.95 7.22-3.017 11.399-3.342 4.972-.388 7.445.018 13.04 2.137 3.799 1.439 10.999 4.919 16 7.733 5.003 2.814 13.371 7.613 18.596 10.663s13.775 8.134 19 11.297c5.225 3.163 12.061 7.246 15.192 9.073 3.13 1.828 9.402 5.521 13.936 8.208 4.535 2.686 10.397 6.897 13.027 9.357 3.265 3.054 5.457 6.261 6.912 10.115 1.672 4.43 2.036 7.161 1.694 12.704-.324 5.244-1.186 8.511-3.349 12.695-1.601 3.098-9.388 16.57-17.303 29.939-7.915 13.368-16.24 27.326-18.5 31.019a3087.099 3087.099 0 0 0-9.697 16c-3.073 5.107-11.2 18.736-18.061 30.286-6.86 11.55-16.45 27.75-21.312 36-4.86 8.25-11.179 18.825-14.04 23.5-2.862 4.675-8.308 13.83-12.101 20.343-3.794 6.513-10.508 17.762-14.92 24.997-7.721 12.664-8.263 13.29-14.5 16.77-3.563 1.987-15.357 8.416-26.21 14.286-10.851 5.87-28.851 15.66-40 21.756-11.147 6.096-25.86 14.032-32.694 17.638-6.834 3.605-13.359 6.709-14.5 6.897ZM116 376.754c2.096-.21 12.525-5.28 26-12.636 12.375-6.757 23.394-13.153 24.486-14.215 1.495-1.453 1.734-2.331.966-3.548-.56-.889-7.304-5.352-14.986-9.918-7.681-4.565-17.116-10.268-20.966-12.672-3.85-2.405-15.046-9.073-24.88-14.818-9.834-5.746-19.087-10.976-20.561-11.623-1.641-.72-3.24-.831-4.12-.287-.981.606-1.598 3.444-1.939 8.924-.275 4.42-.347 17.312-.16 28.65.341 20.616.341 20.616 3.5 23.908 1.738 1.81 9.01 6.733 16.16 10.94 10.754 6.327 13.605 7.587 16.5 7.295ZM184.98 329c.9 0 2.342-.563 3.204-1.25.86-.688 3.803-4.85 6.537-9.25 2.735-4.4 17.476-28.925 32.759-54.5 15.283-25.575 29.64-49.497 31.904-53.16 2.264-3.662 6.141-10.152 8.616-14.422 2.475-4.27 5.957-10.274 7.738-13.341 1.785-3.075 3.244-7.005 3.25-8.759.011-2.982-.694-3.614-11.238-10.077A2882.894 2882.894 0 0 0 249 152.847c-4.125-2.475-13.245-7.94-20.267-12.145a9841.507 9841.507 0 0 1-20.5-12.309 1566.199 1566.199 0 0 0-14.685-8.73c-3.823-2.238-8.13-4.242-9.57-4.453-1.998-.293-3.333.43-5.64 3.057-1.661 1.893-5.368 7.444-8.237 12.337a2040.256 2040.256 0 0 1-11.477 19.251 5775.594 5775.594 0 0 0-12.325 20.5A7048.542 7048.542 0 0 1 131.47 195c-4.823 7.975-10.898 18.1-13.501 22.5-2.604 4.4-8.45 14.075-12.991 21.5-4.542 7.425-10.268 16.988-12.725 21.252-3.26 5.657-4.304 8.405-3.861 10.168.454 1.81 4.239 4.57 15.1 11.01 7.973 4.726 20.686 12.257 28.252 16.735 7.566 4.477 17.582 10.485 22.257 13.351 4.675 2.866 13.19 7.973 18.921 11.348 5.732 3.375 11.158 6.136 12.059 6.136Zm100.681-194.022c2.318.016 3.852-.798 5.75-3.055 1.497-1.78 2.589-4.313 2.589-6.01 0-2.269-.848-3.508-3.75-5.478-2.063-1.4-6.53-4.29-9.927-6.421-3.398-2.132-9.923-6.015-14.5-8.63-4.578-2.614-10.798-6.408-13.823-8.43-3.025-2.022-7.75-4.873-10.5-6.334-2.75-1.462-8.15-4.689-12-7.171-5.023-3.24-7.838-4.434-9.968-4.232-2.1.2-3.65 1.298-5.297 3.75-1.437 2.14-2.215 4.588-2.032 6.391.254 2.498 1.604 3.72 9.297 8.412 4.95 3.02 15.525 9.427 23.5 14.238a3631.896 3631.896 0 0 1 26 15.848c7.807 4.82 12.515 7.107 14.661 7.122Z"/>
  <path id="path1" fill="#000" fill-rule="evenodd" stroke="none" d="M479.5 119.5c0 34 0 34-7 34.262-3.85.144-11.275.947-16.5 1.785s-12.533 2.42-16.24 3.514c-3.708 1.095-9.416 3.559-12.686 5.475-3.269 1.916-7.401 4.71-9.183 6.209-1.781 1.499-4.926 5.336-6.988 8.526-2.395 3.706-4.41 8.588-5.576 13.515-1.346 5.684-1.817 11.548-1.79 22.282.023 8.902.749 19.208 1.866 26.5 1.006 6.563 2.964 17.107 4.352 23.432 1.388 6.325 3.152 14.2 3.92 17.5.768 3.3 3.14 14.55 5.272 25s4.816 24.901 5.965 32.114c1.57 9.86 2.088 17.705 2.088 31.622 0 16.395-.284 19.635-2.485 28.386-1.367 5.433-4.299 13.56-6.515 18.061-2.832 5.75-6.265 10.559-11.545 16.172-5.308 5.642-10.516 9.846-17.735 14.316-5.62 3.481-13.145 7.611-16.72 9.179-3.575 1.567-10.739 4.4-15.92 6.293-5.181 1.894-13.506 4.308-18.5 5.365-4.994 1.056-13.58 2.637-19.08 3.513-6.633 1.057-18.754 1.716-36 1.958-14.3.201-30.5.01-36-.424s-15.625-1.537-22.5-2.45c-6.875-.912-16.575-2.328-21.557-3.146-4.98-.817-12.406-2.176-16.5-3.02-4.093-.843-9.693-2.157-12.443-2.92-2.75-.763-7.7-2.083-11-2.932-3.3-.85-10.5-2.648-16-3.996-5.5-1.348-15.85-4.3-23-6.56-7.15-2.261-14.912-4.805-17.25-5.653-2.904-1.055-4.25-2.127-4.25-3.386 0-1.228 3.252-3.97 9.75-8.22 5.363-3.507 13.202-8.277 17.421-10.6 7.671-4.225 7.671-4.225 18.5-1.287 5.956 1.616 19.154 4.998 29.329 7.515 10.175 2.517 23.45 5.465 29.5 6.55 6.05 1.087 15.05 2.427 20 2.98 4.95.552 14.85 1.53 22 2.175 8.107.73 21.657.955 36 .598 13.264-.33 27.021-1.234 32.5-2.135 5.225-.86 14-2.963 19.5-4.673s12.925-4.443 16.5-6.073a870.93 870.93 0 0 0 11.5-5.354c2.75-1.314 7.94-4.836 11.535-7.826 3.888-3.234 7.591-7.403 9.142-10.29 1.433-2.668 3.653-8.143 4.932-12.166 1.934-6.082 2.319-9.415 2.283-19.794-.024-7.149-.774-16.627-1.756-22.186-.943-5.339-2.407-13.531-3.253-18.206-.847-4.675-2.454-12.775-3.572-18-1.118-5.225-3.15-14-4.514-19.5-1.365-5.5-3.5-14.725-4.746-20.5-1.246-5.775-2.995-15-3.886-20.5-.892-5.5-2.081-14.08-2.643-19.068-.562-4.987-1.014-13.987-1.005-20 .01-6.012.652-14.799 1.427-19.525.775-4.726 2.12-11.026 2.988-14 .869-2.974 3.04-8.224 4.824-11.668 1.784-3.443 5.256-9.004 7.715-12.356 2.46-3.353 8.084-8.988 12.5-12.523 4.416-3.534 11.629-8.164 16.029-10.287 4.4-2.124 12.05-5.194 17-6.823 4.95-1.63 14.625-3.757 21.5-4.729s16.1-1.824 20.5-1.894l8-.127Z"/>
  <path id="path2" fill="#B6BCC4" fill-rule="evenodd" stroke="none" d="M116 375.743c-2.73.236-5.372-.8-12-4.708-4.675-2.756-11.133-6.704-14.35-8.773-3.218-2.07-6.48-4.977-7.25-6.462-1.094-2.111-1.4-8.348-1.4-28.56 0-21.125.267-26.213 1.461-27.799 1.43-1.9 1.574-1.879 6.75.986 2.909 1.61 8.214 4.584 11.789 6.61 3.575 2.026 9.1 5.209 12.28 7.073 3.179 1.865 10.253 6.09 15.722 9.39 5.468 3.3 13.836 8.245 18.596 10.989 4.76 2.744 10.736 6.348 13.279 8.01 2.568 1.678 4.753 3.927 4.917 5.062.246 1.716-3.42 4.101-23 14.96-14.766 8.189-24.575 13.03-26.794 13.222Z"/>
  <path id="path3" fill="#fff" fill-rule="evenodd" stroke="none" d="M185.256 329c-1.012 0-5.646-2.194-10.298-4.875-4.652-2.68-22.633-13.322-39.958-23.648-17.325-10.325-34.65-20.844-38.5-23.375-6.25-4.109-7.029-4.977-7.268-8.102-.202-2.632.816-5.36 4.106-11 2.407-4.125 21.576-36.075 42.6-71 21.022-34.925 39.47-65.075 40.994-67 2.195-2.772 3.589-3.562 6.699-3.797 3.477-.262 6.271 1.103 24.398 11.925 11.259 6.722 30.146 18.027 41.971 25.123 11.825 7.095 23.075 14.15 25 15.675 2.099 1.664 3.627 3.836 3.816 5.425.19 1.592-1.021 5.145-3.035 8.9-1.844 3.437-21.525 36.528-43.737 73.537-22.211 37.008-41.411 68.395-42.666 69.75-1.256 1.354-3.11 2.462-4.122 2.462Z"/>
</svg>