<?xml version="1.0" encoding="UTF-8" standalone="no"?>
<!-- Generated by Pixelmator Pro 3.7 -->

<svg
   width="512"
   height="512"
   viewBox="0 0 512 512"
   version="1.1"
   id="svg1"
   sodipodi:docname="icon-p2p-draw.svg"
   inkscape:version="1.4.2 (ebf0e940, 2025-05-08)"
   xmlns:inkscape="http://www.inkscape.org/namespaces/inkscape"
   xmlns:sodipodi="http://sodipodi.sourceforge.net/DTD/sodipodi-0.dtd"
   xmlns="http://www.w3.org/2000/svg"
   xmlns:svg="http://www.w3.org/2000/svg">
  <defs
     id="defs1" />
  <sodipodi:namedview
     id="namedview1"
     pagecolor="#ffffff"
     bordercolor="#000000"
     borderopacity="0.25"
     inkscape:showpageshadow="2"
     inkscape:pageopacity="0.0"
     inkscape:pagecheckerboard="0"
     inkscape:deskcolor="#d1d1d1"
     inkscape:zoom="0.54892083"
     inkscape:cx="330.64878"
     inkscape:cy="521.93319"
     inkscape:window-width="1200"
     inkscape:window-height="770"
     inkscape:window-x="197"
     inkscape:window-y="106"
     inkscape:window-maximized="0"
     inkscape:current-layer="svg1"
     showguides="true">
    <sodipodi:guide
       position="294.40467,66.478038"
       orientation="0,-1"
       id="guide1"
       inkscape:locked="false" />
    <sodipodi:guide
       position="443.95598,219.9443"
       orientation="1,0"
       id="guide2"
       inkscape:locked="false" />
    <sodipodi:guide
       position="479.19058,322.51614"
       orientation="1,0"
       id="guide3"
       inkscape:locked="false" />
    <sodipodi:guide
       position="292.83869,31.243437"
       orientation="0,-1"
       id="guide4"
       inkscape:locked="false" />
    <sodipodi:guide
       position="263.86802,466.58651"
       orientation="0,-1"
       id="guide5"
       inkscape:locked="false" />
    <sodipodi:guide
       position="261.51904,432.1349"
       orientation="0,-1"
       id="guide6"
       inkscape:locked="false" />
    <sodipodi:guide
       position="32.885628,329.56306"
       orientation="1,0"
       id="guide7"
       inkscape:locked="false" />
  </sodipodi:namedview>
  <path
     style="fill:#000000;fill-opacity:1;stroke:none;stroke-width:35;stroke-dasharray:none;stroke-opacity:1"
     d="m 155.32706,480.61597 323.96204,-0.0328 V 45.207259 L 32.679361,44.8696 32.918466,80.474658 444.02166,79.593154 443.68404,445.58764 274.55795,445.01091 Z"
     id="path7"
     sodipodi:nodetypes="ccccccccc" />
  <circle
     style="fill:#000000;fill-opacity:1;stroke:none;stroke-width:35;stroke-dasharray:none;stroke-opacity:1"
     id="path8"
     cx="460.39642"
     cy="461.54739"
     r="39.133694" />
  <circle
     style="fill:#000000;fill-opacity:1;stroke:none;stroke-width:35;stroke-dasharray:none;stroke-opacity:1"
     id="path8-8"
     cx="460.77478"
     cy="65.833855"
     r="39.133694" />
  <circle
     style="fill:#000000;fill-opacity:1;stroke:none;stroke-width:35;stroke-dasharray:none;stroke-opacity:1"
     id="path8-8-0"
     cx="67.175827"
     cy="62.81522"
     r="39.133694" />
  <path
     id="path2"
     fill="#000000"
     fill-rule="evenodd"
     stroke="none"
     d="m 78.98285,469.62959 c -2.15438,0.59403 -4.66097,-0.18539 -6.41628,-1.99508 -1.75454,-1.80897 -2.51146,-4.39507 -1.93619,-6.61526 0.51947,-2.00492 2.03533,-7.53933 3.36857,-12.29873 1.33325,-4.75939 4.30224,-15.27334 6.59779,-23.36429 2.29555,-8.09095 6.15891,-21.33074 8.58529,-29.42169 2.42637,-8.09095 6.68243,-22.49895 9.45793,-32.01774 2.77548,-9.51878 6.84771,-23.53737 9.04937,-31.15238 2.20168,-7.61501 5.9929,-20.46541 8.42494,-28.55636 2.43204,-8.09095 5.73937,-19.44463 7.34962,-25.23035 1.61019,-5.78571 4.963,-13.27069 7.45058,-16.63326 3.19549,-4.31937 8.82764,-8.13446 19.19001,-12.99886 8.06689,-3.78683 22.22096,-10.28684 31.45345,-14.44449 9.23249,-4.15765 20.18557,-9.15989 24.34021,-11.11606 4.15463,-1.95616 10.95307,-5.04935 15.10771,-6.87384 4.15464,-1.82444 8.50009,-4.18148 9.65667,-5.23786 1.67549,-1.53041 1.53724,-3.40502 -0.68062,-9.22612 -2.27058,-5.95966 -2.43594,-8.49812 -0.89757,-13.77907 1.22082,-4.19103 5.93592,-10.61436 13.37263,-18.21733 6.77176,-6.92313 13.88209,-12.5016 17.32193,-13.59009 4.56226,-1.44363 7.10301,-1.27942 11.64815,0.75263 3.42626,1.5319 23.38864,20.75839 48.61827,46.82593 23.54283,24.3248 45.07136,47.06101 47.84109,50.52486 3.87236,4.84285 5.0359,8.02217 5.0359,13.76037 0,6.66353 -0.98839,8.54701 -9.23249,17.59373 -5.07785,5.57218 -11.80914,12.26634 -14.95838,14.87589 -4.16093,3.44791 -7.61435,4.74461 -12.63592,4.74461 -3.8005,0 -8.65254,-1.25835 -10.78224,-2.79631 -2.1797,-1.57404 -4.50585,-2.14145 -5.3218,-1.29801 -0.79727,0.82403 -5.18683,10.45458 -9.75461,21.4012 -4.56774,10.94662 -11.46849,27.28897 -15.33492,36.3164 -3.86636,9.02739 -10.0263,22.88636 -13.68865,30.79773 -4.61767,9.97496 -8.2174,15.36144 -11.7432,17.57213 -2.79644,1.75334 -10.87912,5.15636 -17.96148,7.56231 -7.0824,2.40588 -20.43095,6.74835 -29.66344,9.64992 -9.2325,2.90152 -25.66143,8.03285 -36.50872,11.40295 -10.8473,3.37012 -31.2427,9.76063 -45.32314,14.20118 -14.08045,4.4406 -32.77692,10.28616 -41.54781,12.9901 -8.77088,2.70399 -17.53807,5.35501 -19.48265,5.89124 z m 33.10612,-25.66048 c 3.12446,-0.52416 14.55766,-3.75462 25.40714,-7.17876 10.84946,-3.4242 33.51103,-10.53042 50.35905,-15.79168 16.84799,-5.2612 39.69735,-12.37246 50.77636,-15.80282 14.11491,-4.3703 21.4678,-7.59596 24.56816,-10.77783 2.43353,-2.49749 8.0037,-13.10782 12.3782,-23.57846 4.37444,-10.47065 10.39747,-24.87865 13.3844,-32.01773 2.98694,-7.13909 8.32653,-19.60006 11.86571,-27.69101 3.53919,-8.09095 6.70998,-17.0473 7.04619,-19.90292 0.55531,-4.71704 -2.16136,-8.0423 -29.69233,-36.34445 -16.66695,-17.1338 -31.77968,-31.39614 -33.58378,-31.69408 -1.80414,-0.29788 -24.6359,9.2685 -50.73726,21.25867 -26.10136,11.99017 -49.09048,23.38251 -51.08698,25.31628 -1.99652,1.93377 -4.8623,7.74509 -6.36841,12.91403 -1.50609,5.16898 -4.69492,16.21648 -7.08629,24.55002 -2.39131,8.33358 -6.53304,22.55059 -9.20379,31.59346 -2.67075,9.04286 -9.07606,30.84953 -14.23398,48.45926 -5.15796,17.60974 -10.02791,34.72173 -10.82216,38.02655 -0.79426,3.30483 -1.1287,6.33395 -0.7432,6.73146 0.38545,0.39738 3.17643,-1.23918 6.20211,-3.63684 3.02568,-2.39771 17.96511,-17.53251 33.19873,-33.63296 15.23362,-16.1004 31.64089,-33.57371 36.46062,-38.82946 8.52144,-9.29247 8.71621,-9.73111 7.06247,-15.9062 -1.16333,-4.34377 -1.14253,-8.48706 0.0656,-13.11331 1.09469,-4.19134 4.27547,-9.10021 8.36474,-12.90922 3.64809,-3.39805 9.2643,-6.66174 12.56077,-7.29928 4.51031,-0.87242 7.90041,-0.1587 13.9207,2.93089 4.84417,2.48596 9.2219,6.36014 11.18725,9.90054 1.77588,3.19904 3.29934,9.20131 3.38545,13.33846 0.0891,4.28531 -1.16789,10.05847 -2.92143,13.41647 -1.69287,3.24193 -6.10927,7.65094 -9.81417,9.79783 -5.66863,3.2847 -8.24032,3.72914 -16.22634,2.80428 -9.49006,-1.09911 -9.49006,-1.09911 -49.7773,40.47775 -22.15799,22.86729 -40.57747,42.46953 -40.93217,43.56045 -0.43839,1.34819 1.17468,1.67829 5.03591,1.03061 z m 90.33008,-98.22453 c 3.35455,0 6.05979,-1.50174 8.52436,-4.73208 2.60114,-3.40941 3.33739,-6.13886 2.63399,-9.76503 -0.53698,-2.76815 -2.29563,-6.0656 -3.90813,-7.32768 -1.61249,-1.26211 -5.13852,-2.31954 -7.83556,-2.34981 -2.69703,-0.0303 -6.28515,1.23389 -7.97352,2.80925 -1.80844,1.68737 -3.06977,5.24293 -3.06977,8.65344 0,3.48156 1.33823,7.16888 3.35727,9.25053 1.84652,1.90378 5.56862,3.46138 8.27136,3.46138 z m 133.61012,-53.65133 c 1.97597,0 7.95481,-4.72004 14.17476,-11.19037 10.06607,-10.47129 10.6202,-11.45446 8.62363,-15.30071 -1.17346,-2.26069 -22.06639,-24.65026 -46.42867,-49.7546 -28.88352,-29.76325 -45.48253,-45.6442 -47.70791,-45.6442 -1.91767,0 -7.85057,4.5222 -13.54224,10.32229 -7.35863,7.49881 -9.99677,11.39096 -9.64468,14.22899 0.30251,2.43813 17.51825,21.46819 45.79618,50.62263 29.62007,30.53813 46.49498,46.71597 48.72893,46.71597 z"
     style="stroke:#010101;stroke-width:17.0446;stroke-dasharray:none;stroke-opacity:1" />
  <path
     style="fill:#008000;fill-opacity:1;stroke:none;stroke-width:18.6862;stroke-dasharray:none;stroke-opacity:1"
     d="m 243.54683,189.37604 16.45863,-15.44233 96.74466,96.71773 -16.45865,16.25509 z"
     id="path3" />
  <circle
     style="fill:#ffffff;fill-opacity:1;stroke:none;stroke-width:35;stroke-dasharray:none;stroke-opacity:1"
     id="path9"
     cx="201.17783"
     cy="332.21527"
     r="13.593097" />
</svg>
