<?xml version="1.0" encoding="UTF-8"?>
<!-- Generated by Pixelmator Pro 3.7 -->
<svg width="512" height="512" viewBox="0 0 512 512" xmlns="http://www.w3.org/2000/svg">
    <path id="Shape" fill="#000000" fill-rule="evenodd" stroke="none" d="M 129.059677 512 C 124.810188 512 121.033333 511.700012 120.666664 511.333344 C 120.300003 510.966675 120 506.49881 120 501.404755 C 120 494.818756 119.597298 491.740143 118.60614 490.748993 C 117.839516 489.982361 113.677017 488.583282 109.35614 487.639893 C 105.035263 486.696472 98.203384 484.792053 94.174179 483.407837 C 90.144981 482.02359 83.844978 479.290649 80.174179 477.334625 C 76.50338 475.378632 70.224731 471.295685 66.221619 468.261475 C 62.21851 465.227234 56.224285 459.777435 52.901123 456.150787 C 49.577957 452.524139 44.85965 446.549408 42.415989 442.873627 C 39.972328 439.197845 36.491997 432.88504 34.681919 428.845184 C 32.871841 424.805328 30.650537 419.024994 29.745691 416 C 28.840845 412.975006 27.34495 407.350006 26.42148 403.5 C 25.498011 399.649994 24.237894 395.980591 23.621222 395.345764 C 23.004549 394.710907 18.320526 393.874298 13.212281 393.486603 C 7.201365 393.030396 3.408655 392.265808 2.462281 391.319427 C 1.515041 390.372192 1 387.812134 1 384.051025 C 1 380.264954 1.49231 377.836304 2.415018 377.070526 C 3.193278 376.424622 8.030778 375.470337 13.165018 374.949829 C 20.393145 374.217102 22.860832 373.568878 24.098764 372.077759 C 24.978086 371.018555 26.234589 367.980286 26.890993 365.325989 C 27.547398 362.671692 28.554972 359.149994 29.130047 357.5 C 29.70512 355.850006 30.517504 353.131592 30.935343 351.459106 C 31.353182 349.786621 33.609924 344.611633 35.950321 339.959106 C 38.290722 335.30661 42.146908 328.799988 44.519619 325.5 C 46.892334 322.200012 52.358574 316.047729 56.666824 311.828278 C 60.975071 307.608826 67.220322 302.368042 70.545166 300.182068 C 73.87001 297.996094 79.720009 294.616364 83.545166 292.67157 C 87.370323 290.726776 93.425003 288.23938 97 287.144043 C 100.574997 286.048676 106.64183 284.435242 110.481842 283.558685 C 114.321854 282.682098 118.01857 281.410004 118.696754 280.731812 C 119.49369 279.934875 120.03067 275.431335 120.21492 267.99939 C 120.5 256.5 120.5 256.5 129 256.5 C 137.5 256.5 137.5 256.5 137.78508 267.99939 C 137.96933 275.431335 138.506317 279.934875 139.303238 280.731812 C 139.98143 281.410004 143.678146 282.663513 147.518158 283.517395 C 151.35817 284.371307 156.75 285.755615 159.5 286.593689 C 162.25 287.431763 165.963104 288.764587 167.751343 289.555511 C 169.539581 290.346436 173.178757 292.056824 175.838394 293.356384 C 178.498032 294.655884 184.009933 297.99176 188.087051 300.76947 C 192.164169 303.547119 198.918396 309.347839 203.096436 313.659912 C 207.274475 317.971954 212.795425 324.571167 215.365234 328.324829 C 217.935043 332.078461 221.220886 337.928467 222.667114 341.324829 C 224.113342 344.721161 226.140091 349.75 227.17099 352.5 C 228.201874 355.25 229.705887 360.63324 230.513245 364.462799 C 231.321503 368.296661 232.832245 372.276672 233.875092 373.31955 C 235.366882 374.81134 237.863937 375.350098 245.634521 375.85675 C 255.5 376.5 255.5 376.5 255.793839 383.751465 C 256.067413 390.502808 255.929474 391.068848 253.793839 391.958527 C 252.532227 392.4841 247.768494 393.05014 243.207764 393.2164 C 237.240387 393.433929 234.66066 393.93103 234.006516 394.989471 C 233.506561 395.798401 232.369965 399.394196 231.480759 402.980133 C 230.591537 406.566071 229.136978 412.200012 228.248383 415.5 C 227.359802 418.799988 225.085114 424.875 223.193527 429 C 221.301926 433.125 217.290344 440.17749 214.27887 444.672211 C 211.26741 449.166931 205.315399 456.141907 201.05217 460.172211 C 196.788956 464.202484 191.095673 469.066956 188.400436 470.982117 C 185.7052 472.897308 180.163742 476.144623 176.08609 478.198364 C 172.008438 480.252136 165.933441 482.814453 162.58609 483.892395 C 159.238739 484.970367 153.350006 486.561279 149.5 487.427734 C 145.649994 488.294189 141.487503 489.44278 140.25 489.980133 C 138.157318 490.888824 138 491.582184 138 499.896759 C 138 504.813568 137.726852 509.548218 137.393005 510.418213 C 136.911987 511.671722 135.182602 512 129.059677 512 Z M 115.714813 460.909821 C 116.949615 460.960083 118.38768 460.144135 118.964813 459.065735 C 119.596085 457.8862 120 447.746918 120 433.079926 C 120 409.028381 120 409.028381 115.996826 406.379211 C 113.795082 404.92215 110.428513 401.551453 108.515556 398.888763 C 106.6026 396.226074 103.998444 393.786743 102.728539 393.468018 C 101.458633 393.149292 90.440338 393.026093 78.243446 393.194244 C 59.345024 393.454803 55.826538 393.741028 54.438526 395.130829 C 52.933514 396.637756 52.943146 397.321503 54.565315 404.130829 C 55.530865 408.183868 57.68177 414.419495 59.345112 417.987732 C 61.00845 421.555969 64.166634 427.094421 66.363297 430.29538 C 68.559959 433.496338 73.038315 438.597504 76.315186 441.631317 C 79.592064 444.665131 84.124184 448.331207 86.386574 449.778168 C 88.648956 451.225128 91.984573 453.179718 93.799049 454.121704 C 95.613525 455.06369 99.213524 456.548615 101.799049 457.421509 C 104.384575 458.294403 108.074997 459.416077 110 459.914093 C 111.925003 460.41214 114.496666 460.860199 115.714813 460.909821 Z M 142.151215 461 C 143.11438 461 146.461639 460.333405 149.589569 459.518677 C 152.717514 458.703949 158.926971 456.235321 163.388367 454.032837 C 167.849762 451.830322 174.283249 447.783783 177.684982 445.040527 C 181.086731 442.297241 186.498688 436.553375 189.711578 432.276367 C 192.924454 427.999359 196.848434 421.799988 198.431549 418.5 C 200.014664 415.200012 201.909866 410.25 202.643097 407.5 C 203.376343 404.75 203.981598 400.801361 203.988129 398.72525 C 203.998001 395.588074 203.566742 394.785767 201.434906 393.97525 C 200.024094 393.438873 189.04895 393 177.045685 393 C 157.666519 393 155.004227 393.196045 153.281601 394.75 C 152.214615 395.712494 150.103363 398.2052 148.589905 400.289368 C 147.076462 402.373505 144.0746 405.245789 141.919098 406.672241 C 138 409.265778 138 409.265778 138 433.932892 C 138 451.785095 138.331528 458.931519 139.199997 459.799988 C 139.860001 460.459991 141.188049 461 142.151215 461 Z M 82.557297 375.698059 C 104.614594 375.5 104.614594 375.5 112.289299 368.5 C 119.963997 361.5 119.963997 361.5 119.968346 338.5 C 119.970734 325.850006 119.701347 314.487488 119.369713 313.25 C 118.904976 311.515808 118.048393 311.005615 115.633369 311.024445 C 113.910019 311.037903 110.474998 311.503693 108 312.05957 C 105.525002 312.615417 101.925003 313.753906 100 314.589539 C 98.074997 315.425171 95.150002 316.831299 93.5 317.714294 C 91.849998 318.59729 88.152367 320.856659 85.283043 322.735168 C 82.413719 324.613647 76.737282 329.689148 72.668747 334.014038 C 67.393044 339.622131 64.041016 344.361206 60.981491 350.537354 C 58.62204 355.300293 56.095982 361.740387 55.368031 364.848633 C 54.640079 367.956909 54.280075 371.256866 54.568024 372.181946 C 54.855972 373.106995 56.308464 374.321106 57.795784 374.880005 C 59.391922 375.479736 69.538177 375.814972 82.557297 375.698059 Z M 176.28212 375.98526 C 192.532578 375.996765 197.848221 375.672424 200.659576 374.497772 C 204.082336 373.067627 204.225525 372.815674 203.642838 369.247772 C 203.306198 367.186493 202.599136 364.149994 202.071594 362.5 C 201.544067 360.850006 200.521362 357.924988 199.798935 356 C 199.076508 354.075012 197.037415 349.989807 195.267624 346.921814 C 193.497833 343.853821 189.283615 338.324799 185.90271 334.635132 C 182.521805 330.945496 176.998108 325.985931 173.627808 323.613953 C 170.257507 321.241943 166.149994 318.599396 164.5 317.741638 C 162.850006 316.883881 159.231628 315.269104 156.459183 314.153229 C 153.686737 313.037354 149.077225 311.813843 146.21582 311.434235 C 142.620758 310.957336 140.547745 311.130432 139.506638 311.994507 C 138.240601 313.045227 138.000092 317.097992 138.000549 337.372437 C 138.001114 361.5 138.001114 361.5 144.586578 367.5 C 148.208588 370.799988 152.145828 374.055847 153.336014 374.73526 C 154.859879 375.605103 161.647461 375.974884 176.28212 375.98526 Z"/>
    <path id="path1" fill="#000000" fill-rule="evenodd" stroke="none" d="M 462.5 409.355286 C 460.299988 409.660095 456.381561 409.329254 453.792328 408.620087 C 451.203125 407.910919 447.378113 406.141388 445.292328 404.687805 C 443.206543 403.234192 440.149994 400.019714 438.5 397.544434 C 435.5 393.043976 435.5 393.043976 374.25 393.021973 C 314.34848 393.000488 312.955963 392.955963 311 391 C 309.484863 389.484863 309 387.666656 309 383.5 C 309 379.333313 309.484863 377.515137 311 376 C 312.956604 374.043396 314.333344 374 374.437866 374 C 435.875732 374 435.875732 374 438.934021 369.75 C 440.616119 367.412506 444.009186 364.149994 446.474182 362.5 C 450.956024 359.5 450.956024 359.5 450.978027 217.295807 C 451 75.091614 451 75.091614 446.437744 71.608063 C 443.928497 69.692108 440.307892 66.071503 438.391937 63.562256 C 434.908386 59 434.908386 59 294.04071 59 C 153.173019 59 153.173019 59 150.169998 63.083496 C 148.518326 65.329407 145.329391 68.518341 143.083481 70.169983 C 139 73.173035 139 73.173035 139 143.086517 C 139 211.666656 138.961853 213.038147 137 215 C 135.444443 216.555542 133.666672 217 129 217 C 124.333336 217 122.555557 216.555542 121 215 C 119.038139 213.038147 119 211.666656 119 143.086517 C 119 73.173035 119 73.173035 114.772369 70.063995 C 112.447166 68.354004 109.330612 65.147156 107.846695 62.937653 C 106.36277 60.728149 104.669952 56.688293 104.084885 53.960175 C 103.333191 50.45517 103.333191 47.54483 104.084885 44.039825 C 104.669952 41.311707 106.407997 37.204498 107.947197 34.912689 C 109.486404 32.62088 112.620872 29.486389 114.912689 27.947205 C 117.204498 26.40799 121.311707 24.669952 124.03981 24.084869 C 127.544838 23.333191 130.45517 23.333191 133.96019 24.084869 C 136.688293 24.669952 140.728149 26.362762 142.937668 27.84668 C 145.147171 29.330627 148.354019 32.447174 150.06398 34.772369 C 153.173019 39 153.173019 39 294.508575 39 C 435.844147 39 435.844147 39 439.172089 35.129028 C 441.002441 33 444.198975 30.109833 446.275513 28.706421 C 448.35202 27.30304 452.28952 25.674713 455.025513 25.087952 C 458.544159 24.333344 461.45166 24.332428 464.960175 25.084869 C 467.688293 25.669952 471.795502 27.40799 474.087311 28.947205 C 476.37912 30.486389 479.513611 33.62088 481.052795 35.912689 C 482.59201 38.204498 484.330048 42.311707 484.915131 45.039825 C 485.666809 48.54483 485.666809 51.45517 484.915131 54.960175 C 484.330048 57.688293 482.637238 61.728149 481.15332 63.937653 C 479.669373 66.147156 476.552826 69.354004 474.227631 71.063995 C 470 74.173035 470 74.173035 470 217 C 470 359.826965 470 359.826965 474.227631 362.936035 C 476.552826 364.645996 479.669373 367.852844 481.15332 370.062317 C 482.637238 372.271851 484.333313 376.326904 484.922363 379.073547 C 485.664612 382.534576 485.679108 385.469727 484.969574 388.635834 C 484.406464 391.148438 483.296112 394.46051 482.502075 395.995972 C 481.708038 397.531464 479.587799 400.258362 477.790436 402.055725 C 475.993042 403.853119 472.717407 406.10611 470.51123 407.062378 C 468.305054 408.018677 464.700012 409.050476 462.5 409.355286 Z"/>
    <path id="path2" fill="#000000" fill-rule="evenodd" stroke="none" d="M 317.484406 301.996277 C 261.214752 301.999695 256.228271 301.863892 253.376724 300.25 C 251.676086 299.287506 240.208099 288.26709 227.892319 275.760193 C 215.576553 263.253296 203.894608 250.979218 201.932449 248.484467 C 199.970306 245.989716 197.795746 241.727753 197.100098 239.013489 C 196.01799 234.791321 196.075104 233.242188 197.495514 228.289215 C 199.138412 222.560486 199.773849 221.880798 258.327881 163.2229 C 300.705353 120.770264 318.777222 103.31488 322 101.7229 C 324.933044 100.274048 328.263947 99.517212 331.565765 99.549408 C 335.272308 99.585541 338.024719 100.390503 341.8237 102.549408 C 345.181549 104.457581 356.761505 115.215454 374.601349 133 C 389.773376 148.125 403.80603 162.896423 405.785065 165.825409 C 408.617737 170.017792 409.467682 172.358124 409.779999 176.825409 C 410.114929 181.616211 409.73465 183.312744 407.338348 187.718536 C 405.34436 191.384644 392.154449 205.477051 363 235.090607 C 340.174988 258.275024 321.356445 277.619873 321.181 278.079102 C 321.005524 278.53833 334.135956 279.045898 350.35968 279.207031 C 378.558899 279.487122 379.981537 279.592773 382.678009 281.607422 C 384.22934 282.766479 386.132385 285.379974 386.906982 287.415161 C 388.151154 290.684052 388.123566 291.517639 386.670593 294.564575 C 385.765961 296.461609 383.557526 298.908936 381.762909 300.003113 C 378.600098 301.931488 376.628235 301.992645 317.484406 301.996277 Z M 349.361237 215.874786 C 306.843781 173.317505 293.934326 161.083191 293.24292 161.231079 C 292.551514 161.378998 275.780762 177.700012 255.974564 197.5 C 236.16835 217.299988 220.084045 234.035095 220.231644 234.689087 C 220.379242 235.343079 230.077881 245.580566 241.784164 257.439087 C 263.068329 279 263.068329 279 275.276001 279 C 287.483704 279 287.483704 279 309.814697 256.75 C 322.096771 244.512512 336.019196 230.309326 340.753479 225.187408 L 349.361237 215.874786 Z M 387.438965 178.025391 C 345.636261 136.016235 332.896698 123.571716 332.159332 123.26825 C 331.352875 122.93631 326.668671 126.852325 320.403687 133.095978 L 309.988708 143.475525 L 337.73764 171.237762 C 352.999573 186.506989 365.722656 199 366.011169 199 C 366.299683 199 371.238953 194.280701 376.987366 188.512695 L 387.438965 178.025391 Z"/>
    <path id="path3" fill="#800000" fill-rule="evenodd" stroke="none" d="M 309.90625 143.393066 C 325.394989 128.363434 330.706726 124 331.70282 124 C 332.739868 124 345.044983 135.537018 360.494537 150.994537 L 387.475159 177.989044 L 377.005463 188.494537 C 371.247101 194.272552 366.299683 199 366.011169 199 C 365.722656 199 352.981018 186.488434 337.696442 171.196533 L 309.90625 143.393066 Z"/>
</svg>
