<?xml version="1.0" encoding="UTF-8" standalone="no"?>
<!-- Generated by Pixelmator Pro 3.7 -->

<svg
   width="512"
   height="512"
   viewBox="0 0 512 512"
   version="1.1"
   id="svg1"
   sodipodi:docname="icon-p2p-subtract.svg"
   inkscape:version="1.4.2 (ebf0e940, 2025-05-08)"
   xmlns:inkscape="http://www.inkscape.org/namespaces/inkscape"
   xmlns:sodipodi="http://sodipodi.sourceforge.net/DTD/sodipodi-0.dtd"
   xmlns="http://www.w3.org/2000/svg"
   xmlns:svg="http://www.w3.org/2000/svg">
  <defs
     id="defs1" />
  <sodipodi:namedview
     id="namedview1"
     pagecolor="#ffffff"
     bordercolor="#000000"
     borderopacity="0.25"
     inkscape:showpageshadow="2"
     inkscape:pageopacity="0.0"
     inkscape:pagecheckerboard="0"
     inkscape:deskcolor="#d1d1d1"
     inkscape:zoom="0.57779708"
     inkscape:cx="236.24211"
     inkscape:cy="80.478081"
     inkscape:window-width="1200"
     inkscape:window-height="770"
     inkscape:window-x="218"
     inkscape:window-y="226"
     inkscape:window-maximized="0"
     inkscape:current-layer="svg1"
     showguides="true">
    <sodipodi:guide
       position="294.40467,66.478038"
       orientation="0,-1"
       id="guide1"
       inkscape:locked="false" />
    <sodipodi:guide
       position="443.95598,219.9443"
       orientation="1,0"
       id="guide2"
       inkscape:locked="false" />
    <sodipodi:guide
       position="479.19058,322.51614"
       orientation="1,0"
       id="guide3"
       inkscape:locked="false" />
    <sodipodi:guide
       position="292.83869,31.243437"
       orientation="0,-1"
       id="guide4"
       inkscape:locked="false" />
    <sodipodi:guide
       position="263.86802,466.58651"
       orientation="0,-1"
       id="guide5"
       inkscape:locked="false" />
    <sodipodi:guide
       position="261.51904,432.1349"
       orientation="0,-1"
       id="guide6"
       inkscape:locked="false" />
    <sodipodi:guide
       position="32.885628,329.56306"
       orientation="1,0"
       id="guide7"
       inkscape:locked="false" />
  </sodipodi:namedview>
  <path
     id="path2"
     fill="#000000"
     fill-rule="evenodd"
     stroke="none"
     d="m 193.81183,478.59424 c -90.05259,0.005 -55.41437,-0.20995 -62.99516,-0.88359 -3.1082,-0.2762 -27.10921,-21.64334 -46.819084,-41.47757 -19.70986,-19.83423 -38.405351,-39.29924 -41.545547,-43.25557 -3.140161,-3.95634 -6.620273,-10.71524 -7.733575,-15.01969 -1.731782,-6.69578 -1.640384,-9.15249 0.632805,-17.00722 2.629257,-9.08499 3.6462,-10.16288 97.354641,-103.18631 67.81987,-67.32409 96.74165,-95.00594 101.89931,-97.5306 4.69396,-2.29769 10.02467,-3.49792 15.30881,-3.44687 5.93187,0.0573 10.33676,1.33387 16.41655,4.7576 5.37383,3.02609 23.90609,20.08661 52.45656,48.29048 24.28094,23.98618 46.73845,47.41164 49.90564,52.05662 4.53335,6.64854 5.89358,10.35999 6.39341,17.4445 0.53601,7.59755 -0.0725,10.28802 -3.90756,17.27501 -3.19113,5.81394 -24.29994,28.16258 -70.95801,75.12564 -36.52859,36.76731 -66.37253,67.62363 -66.92611,68.17388 -19.82934,19.70981 -39.70971,38.18329 -39.48268,38.68369 z M 278.39348,341.263 c -68.04391,-67.49005 -88.70387,-86.89199 -89.81039,-86.65746 -1.10652,0.23458 -27.94601,26.11747 -59.64337,57.51756 -31.697381,31.40008 -57.438314,57.93966 -57.202104,58.97682 0.23622,1.03714 15.75768,17.2724 34.492134,36.07839 34.06266,34.19266 34.06266,34.19266 53.59952,34.19266 19.53691,0 19.53691,0 55.27489,-35.28546 19.65593,-19.40699 41.93704,-41.9313 49.51367,-50.05396 z m 60.93865,-60.02398 c -66.90002,-66.62079 -87.2881,-86.35609 -88.46817,-86.83735 -1.29064,-0.52641 -8.78712,5.68385 -18.81344,15.58544 l -16.66788,16.46053 44.40871,44.02713 c 24.42482,24.21491 44.78655,44.02712 45.24827,44.02712 0.46173,0 8.36641,-7.48416 17.56604,-16.63144 z"
     style="stroke-width:1.5931"
     sodipodi:nodetypes="csssssssscssssssccsssssssccsscsscc" />
  <path
     style="fill:#800000;fill-opacity:1;stroke:#010101;stroke-width:7.48758"
     d="m 214.60419,225.76607 35.34452,-32.835 89.30798,87.87273 -34.08219,33.77315 z"
     id="path3" />
  <path
     style="fill:#000000;fill-opacity:1;stroke:none;stroke-width:35;stroke-dasharray:none;stroke-opacity:1"
     d="m 238.70454,480.61597 240.58456,-0.0328 0,-435.375911 L 32.679361,44.8696 32.918466,80.474658 444.02166,79.593154 443.68404,445.58764 274.55795,445.01091 Z"
     id="path7"
     sodipodi:nodetypes="ccccccccc" />
  <circle
     style="fill:#000000;fill-opacity:1;stroke:none;stroke-width:35;stroke-dasharray:none;stroke-opacity:1"
     id="path8"
     cx="460.39642"
     cy="461.54739"
     r="39.133694" />
  <circle
     style="fill:#000000;fill-opacity:1;stroke:none;stroke-width:35;stroke-dasharray:none;stroke-opacity:1"
     id="path8-8"
     cx="460.77478"
     cy="65.833855"
     r="39.133694" />
  <circle
     style="fill:#000000;fill-opacity:1;stroke:none;stroke-width:35;stroke-dasharray:none;stroke-opacity:1"
     id="path8-8-0"
     cx="67.175827"
     cy="62.81522"
     r="39.133694" />
</svg>
