<?xml version="1.0" encoding="UTF-8"?>
<svg width="512" height="512" viewBox="0 0 512 512" xmlns="http://www.w3.org/2000/svg">
  <circle cx="256" cy="256" r="236" fill="#212A32"/>
  <circle cx="256" cy="256" r="190" fill="#ffffff"/>
  <path id="check" fill="#008000" fill-rule="evenodd" stroke="none"
        d="M 223.844696 360 C 222.79425 360 204.506973 341.170593 178.987274 313.812744 
           C 144.992401 277.369232 135.966232 267.145691 136.201645 265.351257 
           C 136.396179 263.868408 143.092361 257.073425 155.444672 245.824249 
           C 166.363129 235.880859 175.214264 228.571442 176.336426 228.571442 
           C 177.515594 228.571442 181.716553 232.304138 186.987961 238.035706 
           C 191.775406 243.241058 201.629044 254.024994 208.884933 262 
           C 216.140823 269.975006 222.682266 276.635315 223.421478 276.80072 
           C 224.16246 276.966553 247.742722 250.494751 275.976837 217.800751 
           C 304.143097 185.185333 328.050385 157.879608 329.104156 157.121368 
           C 330.785767 155.911316 331.44046 156.0336 334.457672 158.121368 
           C 336.348328 159.429626 345.368622 167.190216 354.502747 175.367126 
           C 367.688812 187.171356 371.047394 190.689819 370.805115 192.445557 
           C 370.635864 193.67218 338.242889 231.469543 298.059082 277.32843 
           C 253.148834 328.581238 224.944153 360 223.844696 360 Z"/>
</svg>