<svg xmlns="http://www.w3.org/2000/svg" width="512" height="512" viewBox="0 0 512 512">
  <path fill="#ffffff" d="M256 40C136.7 40 40 126.7 40 233.6c0 87 64 160.6 151.9 185.1 14.8 4.1 28.1-9.8 22.9-24.2-4.4-12.2-2.1-25.8 6.3-35.9 10.3-12.5 28-15.9 42.1-8.2 24.3 13.2 55.3 20.9 88.8 20.9 66.3 0 120-30.1 120-67.2C472 158.2 375.3 40 256 40Zm-96 224c-22.1 0-40-17.9-40-40s17.9-40 40-40 40 17.9 40 40-17.9 40-40 40Zm52-104c-22.1 0-40-17.9-40-40s17.9-40 40-40 40 17.9 40 40-17.9 40-40 40Zm88 0c-22.1 0-40-17.9-40-40s17.9-40 40-40 40 17.9 40 40-17.9 40-40 40Zm52 104c-22.1 0-40-17.9-40-40s17.9-40 40-40 40 17.9 40 40-17.9 40-40 40Z"/>
</svg>
