<?xml version="1.0" encoding="UTF-8"?>
<svg width="512" height="512" viewBox="0 0 512 512" xmlns="http://www.w3.org/2000/svg">
  <circle cx="256" cy="256" r="236" fill="#212A32"/>
  <circle cx="256" cy="256" r="190" fill="#ffffff"/>
  <path id="path2" fill="#800000" fill-rule="evenodd" stroke="none"
        d="M 156 373.906311 C 140.875 373.871002 127.9375 373.615112 127.25 373.337708 C 126.5625 373.060303 126 372.072937 126 371.143555 C 126 370.214203 146.628433 343.53772 171.840973 311.862488 C 197.053513 280.187286 217.991867 253.463562 218.370667 252.47644 C 218.806335 251.341125 218.221786 249.464233 216.779678 247.368073 C 215.525864 245.545563 196.612503 221.361847 174.75 193.626465 C 152.887497 165.891052 135 142.531311 135 141.715881 C 135 140.900421 136.012497 139.961914 137.25 139.63028 C 138.487503 139.298645 152.408203 139.021179 168.184906 139.013641 C 184.588272 139.005859 197.976456 139.420746 199.454529 139.982727 C 201.182831 140.639801 210.486664 152.319733 227.533463 175.232727 C 241.555283 194.079712 253.994949 210.166199 255.177185 210.980438 C 257.208252 212.379272 257.562622 212.186401 261.607452 207.480438 C 263.961853 204.74118 276.052643 189 288.47583 172.5 C 300.899048 156 312.286682 141.714874 313.781738 140.75528 C 316.198669 139.203949 319.554993 139.009949 344.058868 139.00528 C 366.27774 139.001007 371.993561 139.274811 373.557343 140.418274 C 375.458923 141.808746 375.448914 141.90155 373.046875 145.150452 C 371.699341 146.973114 352.828827 170.746307 331.112396 197.979767 C 309.395966 225.213257 291.465973 248.396271 291.267914 249.497589 C 291.012512 250.91803 304.435944 268.61731 337.453918 310.395416 C 363.05426 342.787903 384 370.077271 384 371.038422 C 384 371.999603 383.288208 373.059174 382.418213 373.393005 C 381.548218 373.726868 367.485718 373.993347 351.168213 373.98526 C 329.591888 373.974548 320.854309 373.633606 319.132629 372.73526 C 317.830597 372.055847 302.980591 353.049988 286.132629 330.5 C 260.059052 295.602051 255.12793 289.5 253 289.5 C 250.878326 289.5 245.808807 295.701355 219.5 330.479431 C 202.449997 353.018127 187.375 372.023987 186 372.714691 C 184.165009 373.636475 176.184906 373.95343 156 373.906311 Z"/>
</svg>